:SAMPLES-PER-SECOND 30
:FULLY-SPECIFIED
:DEGREES
64
root  31.4031 39.4565 9.69084 -119.408 -85.3405 110.684
RightUpLeg  -18.7718 -7.54581 -5.44078
RightLeg  32.9917 -4.24559 -3.34945
RightFoot  1.64234 -0.651155 5.80771
RightToes  -2.9104e-010 0 -3.6325e-017
Spine  12.1332 -1.66972 -5.24136
Spine1  11.4572 -2.08701 -1.65067
HEad  6.09563 4.785 0.800575
LeftShoulder1  7.87011 -12.0106 -44.1654
LeftArm  -1.02887 2.6278 -27.3214
LeftForeArm  30.7329 -21.4142 -3.55259
LeftHand  -0.244104 0.0205437 5.32207
RightShoulder  4.44208 8.08269 32.3968
RightArm  7.15905 -16.6467 42.5439
RightForeArm  6.67693 19.7266 5.1864
RightHand  -1.4071 3.64697 -18.1933
LeftUpLeg  7.36887 9.20028 -5.29156
LeftLeg  15.3307 9.9872 -1.44205
LeftFoot  -14.1225 0.162361 3.16934
LeftToes  -1.62803e-010 -2.57217e-011 -2.5681e-011
65
root  29.9176 39.3496 9.73989 -113.384 -85.4274 105.084
RightUpLeg  -18.1588 -11.3569 -4.25264
RightLeg  19.4033 -3.01298 -0.859843
RightFoot  1.85801 -0.707415 6.21422
RightToes  -2.9104e-010 0 -3.6325e-017
Spine  11.5727 -1.90778 -5.96713
Spine1  11.3489 -2.7705 -0.148007
HEad  5.2653 4.37949 0.882141
LeftShoulder1  7.99194 -12.189 -44.3489
LeftArm  -0.131168 0.363256 -27.9796
LeftForeArm  31.5068 -23.8379 -3.45418
LeftHand  -0.244104 0.0205437 5.32207
RightShoulder  4.39722 8.01142 32.2441
RightArm  6.1385 -17.9721 41.8353
RightForeArm  6.25545 19.9391 5.10989
RightHand  -1.40697 3.6202 -18.2423
LeftUpLeg  9.84614 7.90068 -5.46426
LeftLeg  14.3645 10.9382 -1.78434
LeftFoot  -15.3499 0.216422 3.54327
LeftToes  -1.62803e-010 -2.57217e-011 -2.5681e-011
66
root  28.3868 39.2055 9.76411 -104.378 -85.3752 96.5622
RightUpLeg  -16.8427 -10.8784 -4.88105
RightLeg  6.10164 -4.21522 2.63691
RightFoot  1.32391 -0.755142 6.89591
RightToes  -2.9104e-010 0 -3.6325e-017
Spine  10.9805 -2.19633 -6.70881
Spine1  11.0683 -3.4985 1.38155
HEad  4.58356 3.91489 1.08101
LeftShoulder1  8.0546 -12.3256 -44.3094
LeftArm  -0.519591 -1.33291 -28.7253
LeftForeArm  32.9944 -26.0213 -3.82811
LeftHand  -0.244104 0.0205437 5.32207
RightShoulder  4.33723 7.92173 32.0182
RightArm  3.74534 -19.1747 41.4592
RightForeArm  7.54165 19.2979 5.16536
RightHand  -1.34684 3.45978 -17.788
LeftUpLeg  12.2801 7.35169 -5.59613
LeftLeg  13.5004 10.6501 -2.05357
LeftFoot  -16.753 0.246922 3.13902
LeftToes  -1.62803e-010 -2.57217e-011 -2.5681e-011
67
root  26.7691 38.9307 9.75522 -95.6096 -85.0766 88.0404
RightUpLeg  -15.7806 -7.66608 -6.48534
RightLeg  -3.01329 -6.86089 5.05317
RightFoot  -0.378298 -0.797066 8.26078
RightToes  -2.9104e-010 0 -3.6325e-017
Spine  10.6418 -2.46539 -7.42167
Spine1  10.4632 -4.0987 2.47182
HEad  3.98217 3.72674 1.1409
LeftShoulder1  8.04966 -12.3911 -44.0896
LeftArm  -1.02911 -2.52887 -29.6495
LeftForeArm  34.2642 -27.9023 -4.17198
LeftHand  -0.244104 0.0205437 5.32207
RightShoulder  4.28716 7.82579 31.8971
RightArm  -0.26413 -20.241 41.2515
RightForeArm  9.95703 18.0479 5.2513
RightHand  -1.29301 3.38422 -17.2409
LeftUpLeg  14.556 8.14982 -5.30549
LeftLeg  14.0606 8.89946 -2.08457
LeftFoot  -18.6306 0.222665 1.74113
LeftToes  -1.62803e-010 -2.57217e-011 -2.5681e-011
68
root  25.1089 38.6334 9.72887 -91.3456 -84.9564 83.7364
RightUpLeg  -16.4714 -7.8978 -6.42197
RightLeg  -3.41644 -7.75625 5.09917
RightFoot  -1.5605 -0.714756 8.18359
RightToes  -2.9104e-010 0 -3.6325e-017
Spine  10.6372 -2.66495 -7.55435
Spine1  9.9456 -4.56513 3.35642
HEad  3.12577 3.73336 0.966576
LeftShoulder1  8.03005 -12.3973 -43.9587
LeftArm  -1.94423 -3.13345 -30.5429
LeftForeArm  35.6152 -29.7196 -4.50564
LeftHand  -0.244104 0.0205437 5.32207
RightShoulder  4.23882 7.7309 31.7856
RightArm  -4.96411 -20.7688 41.0953
RightForeArm  11.936 16.3372 5.33964
RightHand  -1.31026 3.48881 -17.2644
LeftUpLeg  16.8738 10.3502 -4.16687
LeftLeg  15.5533 6.00752 -1.75028
LeftFoot  -19.705 0.144908 0.351748
LeftToes  -1.62803e-010 -2.57217e-011 -2.5681e-011
